REM DIRINDEX 1\2\6,1\2\7,1\2\8,1\2\9,1\3\10,1\3\11,1\4\12,1\4\13,1\4\14,1\5\15,1\5\16,1\5\17
REM DIRNAME folder01,folder02,folder03,folder04,folder05,folder06,folder07,folder08,folder09,folder10,folder11,folder12,folder13,folder14,folder15,folder16,folder17
TITLE ""
FILE "1900_2_sec07_0682_0700.mp3" MP3
  TRACK 01 AUDIO
    TITLE "0:"
    INDEX 01 00:00:00
  TRACK 02 AUDIO
    TITLE "13:cjc020_3477"
    INDEX 01 00:00:19
  TRACK 03 AUDIO
    TITLE "0:"
    INDEX 01 00:01:38
  TRACK 04 AUDIO
    TITLE "14:cjc020_3478"
    INDEX 01 00:01:40
  TRACK 05 AUDIO
    TITLE "0:"
    INDEX 01 00:02:71
  TRACK 06 AUDIO
    TITLE "13:cjc020_3479"
    INDEX 01 00:03:47
  TRACK 07 AUDIO
    TITLE "0:"
    INDEX 01 00:04:56
  TRACK 08 AUDIO
    TITLE "14:cjc020_3480"
    INDEX 01 00:04:62
  TRACK 09 AUDIO
    TITLE "0:"
    INDEX 01 00:07:39
  TRACK 10 AUDIO
    TITLE "13:cjc020_3481"
    INDEX 01 00:08:17
  TRACK 11 AUDIO
    TITLE "0:"
    INDEX 01 00:09:18
  TRACK 12 AUDIO
    TITLE "14:cjc020_3482"
    INDEX 01 00:09:24
  TRACK 13 AUDIO
    TITLE "0:"
    INDEX 01 00:11:50
  TRACK 14 AUDIO
    TITLE "13:cjc020_3483"
    INDEX 01 00:12:30
  TRACK 15 AUDIO
    TITLE "0:"
    INDEX 01 00:13:33
  TRACK 16 AUDIO
    TITLE "14:cjc020_3484"
    INDEX 01 00:13:37
  TRACK 17 AUDIO
    TITLE "0:"
    INDEX 01 00:18:27
  TRACK 18 AUDIO
    TITLE "13:cjc020_3485"
    INDEX 01 00:19:07
  TRACK 19 AUDIO
    TITLE "0:"
    INDEX 01 00:20:18
  TRACK 20 AUDIO
    TITLE "14:cjc020_3486"
    INDEX 01 00:20:20
  TRACK 21 AUDIO
    TITLE "0:"
    INDEX 01 00:23:08
  TRACK 22 AUDIO
    TITLE "13:cjc020_3487"
    INDEX 01 00:23:61
  TRACK 23 AUDIO
    TITLE "0:"
    INDEX 01 00:24:65
  TRACK 24 AUDIO
    TITLE "14:cjc020_3488"
    INDEX 01 00:24:71
  TRACK 25 AUDIO
    TITLE "0:"
    INDEX 01 00:27:63
  TRACK 26 AUDIO
    TITLE "13:cjc020_3489"
    INDEX 01 00:28:41
  TRACK 27 AUDIO
    TITLE "0:"
    INDEX 01 00:29:50
  TRACK 28 AUDIO
    TITLE "14:cjc020_3490"
    INDEX 01 00:29:54
  TRACK 29 AUDIO
    TITLE "0:"
    INDEX 01 00:32:45
  TRACK 30 AUDIO
    TITLE "13:cjc020_3491"
    INDEX 01 00:33:22
  TRACK 31 AUDIO
    TITLE "0:"
    INDEX 01 00:34:20
  TRACK 32 AUDIO
    TITLE "14:cjc020_3492"
    INDEX 01 00:34:22
  TRACK 33 AUDIO
    TITLE "0:"
    INDEX 01 00:36:35
  TRACK 34 AUDIO
    TITLE "13:cjc020_3493"
    INDEX 01 00:37:12
  TRACK 35 AUDIO
    TITLE "0:"
    INDEX 01 00:38:14
  TRACK 36 AUDIO
    TITLE "14:cjc020_3494"
    INDEX 01 00:38:16
  TRACK 37 AUDIO
    TITLE "0:"
    INDEX 01 00:41:08
  TRACK 38 AUDIO
    TITLE "13:cjc020_3495"
    INDEX 01 00:41:63
  TRACK 39 AUDIO
    TITLE "0:"
    INDEX 01 00:42:74
  TRACK 40 AUDIO
    TITLE "14:cjc020_3496"
    INDEX 01 00:43:03
  TRACK 41 AUDIO
    TITLE "0:"
    INDEX 01 00:44:24
  TRACK 42 AUDIO
    TITLE "13:cjc020_3497"
    INDEX 01 00:45:04
  TRACK 43 AUDIO
    TITLE "0:"
    INDEX 01 00:46:09
  TRACK 44 AUDIO
    TITLE "14:cjc020_3498"
    INDEX 01 00:46:13
  TRACK 45 AUDIO
    TITLE "0:"
    INDEX 01 00:48:32
  TRACK 46 AUDIO
    TITLE "13:cjc020_3499"
    INDEX 01 00:49:14
  TRACK 47 AUDIO
    TITLE "0:"
    INDEX 01 00:50:44
  TRACK 48 AUDIO
    TITLE "14:cjc020_3500"
    INDEX 01 00:50:48
  TRACK 49 AUDIO
    TITLE "0:"
    INDEX 01 00:53:15
  TRACK 50 AUDIO
    TITLE "13:cjc020_3501"
    INDEX 01 00:53:70
  TRACK 51 AUDIO
    TITLE "0:"
    INDEX 01 00:54:68
  TRACK 52 AUDIO
    TITLE "14:cjc020_3502"
    INDEX 01 00:54:72
  TRACK 53 AUDIO
    TITLE "0:"
    INDEX 01 00:57:15
  TRACK 54 AUDIO
    TITLE "13:cjc020_3503"
    INDEX 01 00:57:68
  TRACK 55 AUDIO
    TITLE "0:"
    INDEX 01 00:59:24
  TRACK 56 AUDIO
    TITLE "14:cjc020_3504"
    INDEX 01 00:59:28
  TRACK 57 AUDIO
    TITLE "0:"
    INDEX 01 01:02:50
  TRACK 58 AUDIO
    TITLE "13:cjc020_3505"
    INDEX 01 01:03:27
  TRACK 59 AUDIO
    TITLE "0:"
    INDEX 01 01:04:33
  TRACK 60 AUDIO
    TITLE "14:cjc020_3506"
    INDEX 01 01:04:35
  TRACK 61 AUDIO
    TITLE "0:"
    INDEX 01 01:06:65
  TRACK 62 AUDIO
    TITLE "13:cjc020_3507"
    INDEX 01 01:07:45
  TRACK 63 AUDIO
    TITLE "0:"
    INDEX 01 01:08:48
  TRACK 64 AUDIO
    TITLE "14:cjc020_3508"
    INDEX 01 01:08:54
  TRACK 65 AUDIO
    TITLE "0:"
    INDEX 01 01:09:61
  TRACK 66 AUDIO
    TITLE "13:cjc020_3509"
    INDEX 01 01:10:43
  TRACK 67 AUDIO
    TITLE "0:"
    INDEX 01 01:11:54
  TRACK 68 AUDIO
    TITLE "14:cjc020_3510"
    INDEX 01 01:11:58
  TRACK 69 AUDIO
    TITLE "0:"
    INDEX 01 01:14:57
  TRACK 70 AUDIO
    TITLE "13:cjc020_3511"
    INDEX 01 01:15:35
  TRACK 71 AUDIO
    TITLE "0:"
    INDEX 01 01:16:32
  TRACK 72 AUDIO
    TITLE "14:cjc020_3512"
    INDEX 01 01:16:34
  TRACK 73 AUDIO
    TITLE "0:"
    INDEX 01 01:20:14
  TRACK 74 AUDIO
    TITLE "13:cjc020_3513"
    INDEX 01 01:20:69
  TRACK 75 AUDIO
    TITLE "0:"
    INDEX 01 01:22:05
  TRACK 76 AUDIO
    TITLE "14:cjc020_3514"
    INDEX 01 01:22:09
  TRACK 77 AUDIO
    TITLE "0:"
    INDEX 01 01:24:53
